<?xml version="1.0" encoding="utf-8"?>
<!-- Generator: Adobe Illustrator 19.2.0, SVG Export Plug-In . SVG Version: 6.00 Build 0)  -->
<svg version="1.1" id="Layer_1" xmlns="http://www.w3.org/2000/svg" xmlns:xlink="http://www.w3.org/1999/xlink" x="0px" y="0px"
	 viewBox="0 0 296 55" style="enable-background:new 0 0 296 55;" xml:space="preserve">
<style type="text/css">
	.st0{fill:#FFFFFF;}
</style>
<path class="st0" d="M33.6,9L33.6,9H16v17.6c0,0,0,0,0,0c0,9.8,7.9,17.8,17.7,17.8c9.8,0,17.7-7.9,17.7-17.7
	C51.5,16.9,43.4,9,33.6,9z M22,26.6V15h11.6h0c6.2,0,11.3,5.2,11.3,11.5s-5.2,11.4-11.5,11.4c-6.1,0-10.5-4.8-11.5-10.8V26.6z"/>
<path class="st0" d="M55.3,43.9V14.1h5.2v29.8H55.3z"/>
<path class="st0" d="M64.4,29c0-9.3,7-15.4,15.6-15.4c5.8,0,9.6,2.8,12,6.2l-4.3,2.4c-1.6-2.2-4.4-4-7.7-4
	c-5.9,0-10.3,4.5-10.3,10.8c0,6.3,4.4,10.8,10.3,10.8c3,0,5.7-1.4,7.1-2.7v-4.6h-8.9v-4.6h14.1v11.2c-3,3.3-7.1,5.4-12.3,5.4
	C71.4,44.5,64.4,38.3,64.4,29z"/>
<path class="st0" d="M97,43.9V14.1h5.2v29.8H97z"/>
<path class="st0" d="M115.3,43.9V18.7h-9v-4.6h23.3v4.6h-9v25.2H115.3z"/>
<path class="st0" d="M150,43.9l-2.2-5.7h-13.7l-2.2,5.7H126l11.7-29.8h6.5l11.7,29.8H150z M141,19.3l-5.4,14.2h10.7L141,19.3z"/>
<path class="st0" d="M158.8,43.9V14.1h5.2v25.2h13.1v4.6H158.8z"/>
<path class="st0" d="M202.9,43.9v-12h-12.4v12h-7.7V14h7.7v11.1h12.4V14h7.7v29.9H202.9z"/>
<path class="st0" d="M215.2,43.9v-6c12.9-9.4,15.4-11.4,15.4-14.4c0-2.1-1.9-3.1-4.1-3.1c-3.3,0-5.8,1.3-8,3.3l-4.3-5.1
	c3.2-3.5,7.9-5,12.1-5c7,0,12.1,3.9,12.1,9.9c0,4.6-3.3,8.5-10.7,13.7h10.9v6.7H215.2z"/>
<path class="st0" d="M241.2,29c0-9.1,6.9-15.4,16-15.4c9.1,0,15.9,6.4,15.9,15.4c0,9.1-6.8,15.4-15.9,15.4
	C248.1,44.4,241.2,38.1,241.2,29z M265.3,29c0-4.9-3.2-8.6-8.1-8.6c-5,0-8.1,3.8-8.1,8.6c0,4.8,3.2,8.6,8.1,8.6
	C262.1,37.6,265.3,33.8,265.3,29z"/>
<path class="st0" d="M40.7,24.5c0,5.4-4,10-9.1,10.8c0.7,0.2,1.4,0.3,2.2,0.3c4.9,0,8.9-4,8.9-8.9c0-2.6-1.1-4.9-2.8-6.5
	C40.4,21.5,40.7,23,40.7,24.5z"/>
</svg>
