<svg id="Asset_Table" data-name="Asset Table" xmlns="http://www.w3.org/2000/svg" viewBox="0 0 32 31.9"><defs><style>.cls-1{fill:#00adee;}.cls-2{fill:#616161;}</style></defs><title>icon-assets</title><rect class="cls-1" x="6.1" y="12.65" width="5.77" height="5.96"/><rect class="cls-1" x="13.22" y="12.65" width="5.77" height="5.96"/><rect class="cls-1" x="20.33" y="12.65" width="5.77" height="5.96"/><rect class="cls-1" x="6.1" y="19.99" width="5.77" height="5.96"/><rect class="cls-1" x="13.22" y="19.99" width="5.77" height="5.96"/><rect class="cls-1" x="20.33" y="19.99" width="5.77" height="5.96"/><path class="cls-2" d="M27,32H5a5.05,5.05,0,0,1-5-5.13V5.23A5.05,5.05,0,0,1,5,.1H27a5.05,5.05,0,0,1,5,5.13V26.87A5.05,5.05,0,0,1,27,32ZM5,3.52A1.68,1.68,0,0,0,3.31,5.23V26.87A1.68,1.68,0,0,0,5,28.58H27a1.68,1.68,0,0,0,1.66-1.71V5.23A1.68,1.68,0,0,0,27,3.52Z" transform="translate(0 -0.1)"/><rect class="cls-2" x="1.83" y="6.27" width="28.69" height="3.42"/></svg>