<svg id="Water_Transfer" data-name="Water Transfer" xmlns="http://www.w3.org/2000/svg" viewBox="0 0 32 29.71"><defs><style>.cls-1{fill:#00adee;}.cls-2{fill:#616161;}</style></defs><title>icon-watertransfer</title><path class="cls-1" d="M20.54,19A7.31,7.31,0,0,0,20,16.76a14.28,14.28,0,0,0-1.24-2.41c-.7-1.12-1.42-2.22-2.13-3.34a19.93,19.93,0,0,1-1.25-2.15A3.78,3.78,0,0,1,15,7.66l0,.06c-.08.24-.16.48-.26.72a15.71,15.71,0,0,1-1.32,2.49l-2.25,3.54-.32.53a12.62,12.62,0,0,0-1,2.21,6.18,6.18,0,0,0-.35,3,5.33,5.33,0,0,0,2.78,4,5.11,5.11,0,0,0,.57.28l.16.06.5.16.1,0a5.39,5.39,0,0,0,.6.11l.15,0,.5,0h.68L16,24.8A5.48,5.48,0,0,0,20.54,19Z" transform="translate(0 -1.29)"/><path class="cls-2" d="M31.71,13.57l-.47-.32a.67.67,0,0,0-.94.18l-.7,1a14.86,14.86,0,1,0-1.3,8l-2.87-1.72a11.55,11.55,0,1,1,.89-5.57l-1.1-.75a.68.68,0,0,0-1,.18l-.31.47a.68.68,0,0,0-.11.51.69.69,0,0,0,.29.44l4,2.77a.7.7,0,0,0,.51.1.69.69,0,0,0,.43-.28l2.77-4A.71.71,0,0,0,32,14,.68.68,0,0,0,31.71,13.57Z" transform="translate(0 -1.29)"/></svg>