<svg id="Analytics" xmlns="http://www.w3.org/2000/svg" viewBox="0 0 32 32"><defs><style>.cls-1{fill:#616161;}.cls-2{fill:#00adee;}</style></defs><title>icon-analytics</title><path class="cls-1" d="M27,32H5a5.06,5.06,0,0,1-5-5.14V5.14A5.06,5.06,0,0,1,5,0H27a5.06,5.06,0,0,1,5,5.14V26.86A5.06,5.06,0,0,1,27,32ZM5,3.43A1.69,1.69,0,0,0,3.31,5.14V26.86A1.69,1.69,0,0,0,5,28.57H27a1.69,1.69,0,0,0,1.66-1.71V5.14A1.69,1.69,0,0,0,27,3.43H5Z"/><rect class="cls-2" x="21.84" y="7.19" width="3.31" height="18.58"/><rect class="cls-2" x="16.97" y="17.2" width="3.31" height="8.57"/><rect class="cls-2" x="12.09" y="12.18" width="3.31" height="13.59"/><rect class="cls-2" x="7.22" y="21.48" width="3.31" height="4.29"/></svg>