<?xml version="1.0" encoding="utf-8"?>
<!-- Generator: Adobe Illustrator 20.1.0, SVG Export Plug-In . SVG Version: 6.00 Build 0)  -->
<svg version="1.1" id="Dashboard_Active" xmlns="http://www.w3.org/2000/svg" xmlns:xlink="http://www.w3.org/1999/xlink" x="0px"
	 y="0px" viewBox="0 0 32 32" style="enable-background:new 0 0 32 32;" xml:space="preserve">
<style type="text/css">
	.st0{fill:#616161;}
	.st1{fill:#00ADEE;}
</style>
<title>icon-dashboard-active</title>
<g>
	<path class="st0" d="M16,31.4c-8.6,0-15.5-7-15.5-15.5S7.5,0.4,16,0.4s15.5,7,15.5,15.5S24.6,31.4,16,31.4z M16,3.3
		C9.1,3.3,3.4,9,3.4,15.9S9.1,28.5,16,28.5s12.6-5.7,12.6-12.6S23,3.3,16,3.3z"/>
	<path class="st1" d="M16.7,18.3c-1.2,0-2.2,0.5-2.9,1.3l-5.6-3.4c0.1-0.4,0.2-0.7,0.2-1.1c0-2.2-1.8-4-4-4s-4,1.8-4,4
		c0,2.2,1.8,4,4,4c1.1,0,2.1-0.4,2.8-1.1l5.7,3.5c-0.1,0.3-0.1,0.6-0.1,0.9c0,2.2,1.8,4,4,4s4-1.8,4-4
		C20.7,20.1,18.9,18.3,16.7,18.3z"/>
	<circle class="st0" cx="26.7" cy="8.5" r="4"/>
	<g>
		<rect x="19" y="16.5" transform="matrix(0.603 -0.7978 0.7978 0.603 -5.967 23.1947)" class="st1" width="2.7" height="2.1"/>
		<path class="st1" d="M26.7,4c-2.8,0-5.1,2.3-5.1,5.1c0,1.3,0.5,2.4,1.3,3.3L21.6,14l1.7,1.3l1.2-1.6c0.7,0.3,1.4,0.5,2.2,0.5
			c2.8,0,5.1-2.3,5.1-5.1S29.5,4,26.7,4z M26.7,12.1c-1.6,0-3-1.3-3-3s1.3-3,3-3c1.6,0,3,1.3,3,3S28.3,12.1,26.7,12.1z"/>
	</g>
</g>
</svg>
