<svg id="loading-barrel" xmlns="http://www.w3.org/2000/svg" viewBox="0 0 165 183">
  <style>
    #loading-barrel .water {
      animation: wave 0.6s infinite linear, fill-up 4s infinite ease-out;
    }
    @keyframes wave {
      0% {x: 0px;}
      100% {x: -125px;}
    }
    @keyframes fill-up {
      0% {height: 0px; y: 190px;}
      85% {height: 100px; y: -30px;}
      100% {height: 0px; y: 190px;}
    }

    #loading-barrel .water-bottom {
      animation: bottom-fill-up 4s infinite linear;
    }
    @keyframes bottom-fill-up {
      0% {y: 180px; height: 0px;}
      85% {y: 30px; height: 150px;}
      100% {y: 180px; height: 0px;}
    }

    #loading-barrel .loading-text-letter {
      animation: letter-opacity 2s infinite ease;
      font-family: helvetica !important;
      font-size: 28px !important;
      font-weight: bold !important;
    }
    #loading-barrel .letter-delay1 {animation-delay: .2s;}
    #loading-barrel .letter-delay2 {animation-delay: .4s;}
    #loading-barrel .letter-delay3 {animation-delay: .6s;}
    #loading-barrel .letter-delay4 {animation-delay: .8s;}
    #loading-barrel .letter-delay5 {animation-delay: 1.0s;}
    #loading-barrel .letter-delay6 {animation-delay: 1.2s;}
    #loading-barrel .letter-delay7 {animation-delay: 1.4s;}
    #loading-barrel .letter-delay8 {animation-delay: 1.6s;}
    #loading-barrel .letter-delay9 {animation-delay: 1.8s;}
    #loading-barrel .letter-delay10 {animation-delay: 2.0s;}
    @keyframes letter-opacity {
      0% {opacity:1;}
      20% {opacity:.2;}
      100% {opacity:1;}
    }
  </style>
  <title>Loading Icon Barrel</title>

  <mask id="barrel-mask">
    <path fill="#ffffff" transform="translate(0 -0.65)" d="M155,17a6,6,0,0,0-2.65-11.33h-140a6,6,0,0,0,0,12h3v71h-3a6,6,0,0,0,0,12h3v64h-3a6,6,0,0,0,0,12H153.64L155,176a5.92,5.92,0,0,0,0-10.67l-1.65-.83V100.82L155,100a5.92,5.92,0,0,0,0-10.67l-1.65-.83V17.82Z" />
  </mask>

  <pattern id="water-pattern" width=".25" height="1.1" patternContentUnits="objectBoundingBox">
    <path fill="#1b7a9d" d="M0.25,1H0c0,0,0-0.659,0-0.916c0.083-0.303,0.158,0.334,0.25,0C0.25,0.327,0.25,1,0.25,1z"/>
  </pattern>

  <rect class="water" fill="url(#water-pattern)" mask="url(#barrel-mask)" x="5" y="80" width="500" height="60"/>
  <rect class="water-bottom" fill="#1b7a9d" mask="url(#barrel-mask)" x="5" y="130" width="165" height="60"/>
  <path id="barrel-border" fill="#555555" transform="translate(0 -0.65)" d="M164.31,94.65a11.89,11.89,0,0,0-5-9.7V21.35a11.89,11.89,0,0,0,5-9.7,12,12,0,0,0-12-12h-140a12,12,0,0,0-3,23.62V83a11.87,11.87,0,0,0-1.15.37l.09-.08A11.9,11.9,0,0,0,3.05,87l-.38.49c-.1.13-.2.27-.29.4a12,12,0,0,0-.67,1.12v0a12,12,0,0,0,7.62,17.18V159A12,12,0,0,0,5,161.08v0a12.09,12.09,0,0,0-2.43,2.51l-.09.11-.15.22-.14.21-.27.44-.27.49,0,.07a11.91,11.91,0,0,0-1.33,5.47c0,.06,0,.11,0,.17s0,.11,0,.16a12,12,0,0,0,12,12h140a11.44,11.44,0,0,0,9.32-4.83l.13-.2a11.85,11.85,0,0,0-2.46-17V104.35A11.89,11.89,0,0,0,164.31,94.65Zm-152-6h3v-71h-3a6,6,0,0,1,0-12h140A6,6,0,0,1,155,17l-1.65.83V88.49l1.65.83A5.92,5.92,0,0,1,155,100l-1.65.83v63.67l1.65.83A5.92,5.92,0,0,1,155,176l-1.32.67H12.31a6,6,0,0,1-5.15-9.07,6.08,6.08,0,0,1,.4-.56,6,6,0,0,1,3.37-2.21h0a6,6,0,0,1,1.36-.16h3v-64h-3A6,6,0,0,1,11,100.5v0a6,6,0,0,1-3.78-8.91l0,0A6,6,0,0,1,12.31,88.65Z" />

  <text class="loading-text-letter letter-delay1" x="30" y="145" fill="#ffffff">L</text>
  <text class="loading-text-letter letter-delay2" x="47" y="145" fill="#ffffff">o</text>
  <text class="loading-text-letter letter-delay3" x="65" y="145" fill="#ffffff">a</text>
  <text class="loading-text-letter letter-delay4" x="81" y="145" fill="#ffffff">d</text>
  <text class="loading-text-letter letter-delay5" x="98" y="145" fill="#ffffff">i</text>
  <text class="loading-text-letter letter-delay6" x="105" y="145" fill="#ffffff">n</text>
  <text class="loading-text-letter letter-delay7" x="122" y="145" fill="#ffffff">g</text>
</svg>
