<svg id="Layer_2" data-name="Layer 2" xmlns="http://www.w3.org/2000/svg" viewBox="0 0 655.08 90.79"><defs><style>.cls-1{fill:#00a9f0;}.cls-2,.cls-3{fill:#fff;}.cls-2{opacity:0.75;}.cls-4{fill:#002b53;}</style></defs><title>logo-color</title><circle class="cls-1" cx="45.34" cy="45.34" r="45.34"/><rect class="cls-1" width="45.52" height="45.32"/><path class="cls-2" d="M77.62,22.14H45.88V54.08h0A31.77,31.77,0,1,0,77.62,22.14Z" transform="translate(-32.28 -8.74)"/><path class="cls-3" d="M77.62,25.14A28.84,28.84,0,1,1,48.88,55.21V25.14H77.62m0-3H45.88V54.08h0A31.77,31.77,0,1,0,77.62,22.14h0Z" transform="translate(-32.28 -8.74)"/><path class="cls-3" d="M68.8,24.41H46.87s-1.83,31.19-.58,34C50,66.92,58.69,73.7,68.81,73.7A24.65,24.65,0,0,0,68.8,24.41Z" transform="translate(-32.28 -8.74)"/><path class="cls-1" d="M132.83,98V22.14h13.32V98H132.83Z" transform="translate(-32.28 -8.74)"/><path class="cls-1" d="M155.9,60.15c0-23.79,17.87-39.27,39.83-39.27,14.79,0,24.47,7.05,30.61,15.82l-10.92,6.14a24.17,24.17,0,0,0-19.69-10.13c-15,0-26.17,11.5-26.17,27.43s11.15,27.54,26.17,27.54a27.83,27.83,0,0,0,18-6.83V69H191.07V57.31h36V85.76a41.19,41.19,0,0,1-31.3,13.77C173.77,99.53,155.9,83.94,155.9,60.15Z" transform="translate(-32.28 -8.74)"/><path class="cls-1" d="M238.93,98V22.14h13.31V98H238.93Z" transform="translate(-32.28 -8.74)"/><path class="cls-1" d="M285.51,98V33.86h-23V22.14h59.29V33.86h-23V98H285.51Z" transform="translate(-32.28 -8.74)"/><path class="cls-1" d="M373.85,98l-5.58-14.57H333.45L327.87,98H312.74l29.82-75.91h16.62L389,98H373.85Zm-23-62.48L337.2,71.76h27.32Z" transform="translate(-32.28 -8.74)"/><path class="cls-1" d="M396.3,98V22.14h13.32V86.33h33.46V98H396.3Z" transform="translate(-32.28 -8.74)"/><path class="cls-4" d="M508.49,98V67.5H476.92V98h-19.6V22h19.6V50.41h31.57V22h19.6V98h-19.6Z" transform="translate(-32.28 -8.74)"/><path class="cls-4" d="M540,98V82.77C572.89,59,579,53.71,579,46.19c0-5.24-4.9-8-10.48-8-8.44,0-14.82,3.19-20.29,8.32l-10.82-13c8.09-8.89,20.17-12.65,30.77-12.65,17.89,0,30.77,10,30.77,25.3,0,11.63-8.32,21.54-27.24,34.76h27.81V98H540Z" transform="translate(-32.28 -8.74)"/><path class="cls-4" d="M606.09,60.09c0-23.13,17.44-39.32,40.69-39.32S687.35,37,687.35,60.09,670,99.41,646.78,99.41,606.09,83.23,606.09,60.09Zm61.32,0c0-12.42-8.09-22-20.63-22S626,47.67,626,60.09s8.1,22,20.75,22S667.41,72.4,667.41,60.09Z" transform="translate(-32.28 -8.74)"/></svg>
