<svg version="1.1" id="Layer_1" xmlns="http://www.w3.org/2000/svg" xmlns:xlink="http://www.w3.org/1999/xlink" x="0px" y="0px" viewBox="0 0 257.5 35.7" style="enable-background:new 0 0 257.5 35.7;" xml:space="preserve"><style type="text/css">.st0{fill:#FFFFFF;}</style><path class="st0" d="M17.6,0L17.6,0H0v17.6l0,0c0,9.8,7.9,17.8,17.7,17.8s17.7-7.9,17.7-17.7C35.5,7.9,27.4,0,17.6,0z M6,17.6V6h11.6l0,0c6.2,0,11.3,5.2,11.3,11.5s-5.2,11.4-11.5,11.4c-6.1,0-10.5-4.8-11.5-10.8v-0.5H6z"/><path class="st0" d="M39.3,34.9V5.1h5.2v29.8H39.3z"/><path class="st0" d="M48.4,20c0-9.3,7-15.4,15.6-15.4c5.8,0,9.6,2.8,12,6.2l-4.3,2.4c-1.6-2.2-4.4-4-7.7-4c-5.9,0-10.3,4.5-10.3,10.8S58.1,30.8,64,30.8c3,0,5.7-1.4,7.1-2.7v-4.6h-8.9v-4.6h14.1v11.2c-3,3.3-7.1,5.4-12.3,5.4C55.4,35.5,48.4,29.3,48.4,20z"/><path class="st0" d="M81,34.9V5.1h5.2v29.8H81z"/><path class="st0" d="M99.3,34.9V9.7h-9V5.1h23.3v4.6h-9v25.2H99.3z"/><path class="st0" d="M134,34.9l-2.2-5.7h-13.7l-2.2,5.7H110l11.7-29.8h6.5l11.7,29.8H134z M125,10.3l-5.4,14.2h10.7L125,10.3z"/><path class="st0" d="M142.8,34.9V5.1h5.2v25.2h13.1v4.6H142.8z"/><path class="st0" d="M186.9,34.9v-12h-12.4v12h-7.7V5h7.7v11.1h12.4V5h7.7v29.9H186.9z"/><path class="st0" d="M199.2,34.9v-6c12.9-9.4,15.4-11.4,15.4-14.4c0-2.1-1.9-3.1-4.1-3.1c-3.3,0-5.8,1.3-8,3.3l-4.3-5.1c3.2-3.5,7.9-5,12.1-5c7,0,12.1,3.9,12.1,9.9c0,4.6-3.3,8.5-10.7,13.7h10.9v6.7H199.2z"/><path class="st0" d="M225.2,20c0-9.1,6.9-15.4,16-15.4c9.1,0,15.9,6.4,15.9,15.4c0,9.1-6.8,15.4-15.9,15.4S225.2,29.1,225.2,20zM249.3,20c0-4.9-3.2-8.6-8.1-8.6c-5,0-8.1,3.8-8.1,8.6s3.2,8.6,8.1,8.6C246.1,28.6,249.3,24.8,249.3,20z"/><path class="st0" d="M24.7,15.5c0,5.4-4,10-9.1,10.8c0.7,0.2,1.4,0.3,2.2,0.3c4.9,0,8.9-4,8.9-8.9c0-2.6-1.1-4.9-2.8-6.5C24.4,12.5,24.7,14,24.7,15.5z"/></svg>
