<?xml version="1.0" encoding="UTF-8"?>
<svg id="Layer_1" data-name="Layer 1" xmlns="http://www.w3.org/2000/svg" viewBox="0 0 35.49 35.05">
  <defs><style>.cls-1{fill:#fff;}</style></defs>
  <title>DH2O-SVG-Droplet</title>
  <path class="cls-1" d="M22.85,5.7H5.16V22.94h0A17.75,17.75,0,0,0,22.9,40.75,17.53,17.53,0,1,0,22.85,5.7ZM11.16,22.94V11.7H22.83A11.28,11.28,0,0,1,34.14,23a11.47,11.47,0,0,1-11.5,11.3c-6.07,0-10.49-4.86-11.49-10.88V22.94Z" transform="translate(-5.16 -5.7)"/>
  <path class="cls-1" d="M29.92,20.82a10.94,10.94,0,0,1-9.15,10.79,8.76,8.76,0,0,0,2.2.31A8.9,8.9,0,0,0,29,16.52,10.9,10.9,0,0,1,29.92,20.82Z" transform="translate(-5.16 -5.7)"/>
</svg>
