<svg id="Layer_2" data-name="Layer 2" xmlns="http://www.w3.org/2000/svg" viewBox="0 0 36 36"><defs><style>.cls-1{fill:#00a9f0;}.cls-2,.cls-3{fill:#fff;}.cls-2{opacity:0.75;}</style></defs><title>logo-droplet-color</title><circle class="cls-1" cx="18" cy="18" r="18"/><rect class="cls-1" width="18.07" height="18"/><path class="cls-2" d="M22.8,10.65H10.2V23.34h0A12.62,12.62,0,1,0,22.8,10.65Z" transform="translate(-4.8 -5.33)"/><path class="cls-3" d="M22.8,13.65a9.64,9.64,0,1,1-9.6,10.1V13.65h9.6m0-3H10.2V23.34h0A12.62,12.62,0,1,0,22.8,10.65h0Z" transform="translate(-4.8 -5.33)"/><path class="cls-3" d="M19.3,11.55H10.6s-0.72,12.39-.23,13.51a10,10,0,0,0,8.94,6.07A9.79,9.79,0,0,0,19.3,11.55Z" transform="translate(-4.8 -5.33)"/></svg>
